<svg xmlns="http://www.w3.org/2000/svg" xmlns:xlink="http://www.w3.org/1999/xlink" width="1268" zoomAndPan="magnify" viewBox="109 539 1268 422" height="422" preserveAspectRatio="xMidYMid meet" version="1.0"><defs><g/><clipPath id="46d89a30d7"><path d="M 109.027344 539.191406 L 528.277344 539.191406 L 528.277344 960.691406 L 109.027344 960.691406 Z M 109.027344 539.191406 " clip-rule="nonzero"/></clipPath><clipPath id="67edc727ad"><path d="M 109.027344 614.191406 L 109.027344 885.808594 C 109.027344 927.230469 142.605469 960.808594 184.027344 960.808594 L 453.539062 960.808594 C 494.960938 960.808594 528.539062 927.230469 528.539062 885.808594 L 528.539062 614.191406 C 528.539062 572.769531 494.960938 539.191406 453.539062 539.191406 L 184.027344 539.191406 C 142.605469 539.191406 109.027344 572.769531 109.027344 614.191406 Z M 109.027344 614.191406 " clip-rule="nonzero"/></clipPath></defs><g clip-path="url(#46d89a30d7)"><g clip-path="url(#67edc727ad)"><path fill="#ff5c00" d="M 486.058594 539.511719 C 462.621094 539.511719 443.871094 558.554688 443.871094 581.699219 L 443.871094 584.335938 C 408.71875 557.96875 365.363281 542.441406 318.195312 542.441406 C 202.773438 542.441406 109.027344 636.1875 109.027344 751.316406 C 109.027344 866.742188 202.773438 960.484375 318.195312 960.484375 C 365.363281 960.484375 409.011719 944.664062 444.164062 918.300781 C 445.628906 940.273438 463.792969 957.847656 486.351562 957.847656 C 509.789062 957.847656 528.535156 938.808594 528.535156 915.664062 L 528.535156 581.699219 C 528.242188 558.554688 509.496094 539.511719 486.058594 539.511719 Z M 318.195312 876.113281 C 249.351562 876.113281 193.398438 820.160156 193.398438 751.316406 C 193.398438 682.472656 249.351562 626.519531 318.195312 626.519531 C 387.039062 626.519531 442.992188 682.472656 442.992188 751.316406 C 442.992188 820.160156 386.746094 876.113281 318.195312 876.113281 Z M 318.195312 876.113281 " fill-opacity="1" fill-rule="nonzero"/></g></g><g fill="#191919" fill-opacity="1"><g transform="translate(569.229416, 864.46673)"><g><path d="M 78.46875 0 L 4.34375 -202.6875 L 44.015625 -202.6875 L 101.34375 -37.9375 L 158.96875 -202.6875 L 198.046875 -202.6875 L 123.921875 0 Z M 78.46875 0 "/></g></g></g><g fill="#191919" fill-opacity="1"><g transform="translate(754.248348, 864.46673)"><g><path d="M 88.59375 3.46875 C 74.125 3.46875 61.289062 0.378906 50.09375 -5.796875 C 38.894531 -11.972656 30.109375 -20.65625 23.734375 -31.84375 C 17.367188 -43.039062 14.1875 -55.976562 14.1875 -70.65625 C 14.1875 -85.507812 17.320312 -98.726562 23.59375 -110.3125 C 29.875 -121.894531 38.5625 -130.921875 49.65625 -137.390625 C 60.757812 -143.859375 73.835938 -147.09375 88.890625 -147.09375 C 102.984375 -147.09375 115.429688 -144.003906 126.234375 -137.828125 C 137.046875 -131.648438 145.492188 -123.203125 151.578125 -112.484375 C 157.660156 -101.773438 160.703125 -89.859375 160.703125 -76.734375 C 160.703125 -74.609375 160.648438 -72.382812 160.546875 -70.0625 C 160.453125 -67.75 160.3125 -65.335938 160.125 -62.828125 L 50.953125 -62.828125 C 51.734375 -51.628906 55.644531 -42.84375 62.6875 -36.46875 C 69.726562 -30.101562 78.269531 -26.921875 88.3125 -26.921875 C 95.84375 -26.921875 102.164062 -28.609375 107.28125 -31.984375 C 112.394531 -35.367188 116.207031 -39.765625 118.71875 -45.171875 L 156.359375 -45.171875 C 153.648438 -36.097656 149.160156 -27.84375 142.890625 -20.40625 C 136.617188 -12.976562 128.894531 -7.140625 119.71875 -2.890625 C 110.550781 1.347656 100.175781 3.46875 88.59375 3.46875 Z M 88.890625 -116.984375 C 79.816406 -116.984375 71.804688 -114.421875 64.859375 -109.296875 C 57.910156 -104.179688 53.472656 -96.414062 51.546875 -86 L 123.0625 -86 C 122.476562 -95.457031 119 -102.984375 112.625 -108.578125 C 106.257812 -114.179688 98.347656 -116.984375 88.890625 -116.984375 Z M 88.890625 -116.984375 "/></g></g></g><g fill="#191919" fill-opacity="1"><g transform="translate(927.39598, 864.46673)"><g><path d="M 18.828125 0 L 18.828125 -143.609375 L 51.546875 -143.609375 L 54.4375 -119.296875 C 58.875 -127.785156 65.289062 -134.539062 73.6875 -139.5625 C 82.082031 -144.582031 91.976562 -147.09375 103.375 -147.09375 C 121.125 -147.09375 134.921875 -141.492188 144.765625 -130.296875 C 154.617188 -119.097656 159.546875 -102.691406 159.546875 -81.078125 L 159.546875 0 L 122.484375 0 L 122.484375 -77.59375 C 122.484375 -89.945312 119.972656 -99.40625 114.953125 -105.96875 C 109.929688 -112.53125 102.113281 -115.8125 91.5 -115.8125 C 81.070312 -115.8125 72.523438 -112.144531 65.859375 -104.8125 C 59.203125 -97.476562 55.875 -87.25 55.875 -74.125 L 55.875 0 Z M 18.828125 0 "/></g></g></g><g fill="#191919" fill-opacity="1"><g transform="translate(1103.439033, 864.46673)"><g><path d="M 18.828125 0 L 18.828125 -143.609375 L 51.828125 -143.609375 L 55.296875 -116.6875 C 60.515625 -125.945312 67.609375 -133.328125 76.578125 -138.828125 C 85.554688 -144.335938 96.128906 -147.09375 108.296875 -147.09375 L 108.296875 -108 L 97.859375 -108 C 89.753906 -108 82.515625 -106.742188 76.140625 -104.234375 C 69.773438 -101.722656 64.804688 -97.378906 61.234375 -91.203125 C 57.660156 -85.023438 55.875 -76.4375 55.875 -65.4375 L 55.875 0 Z M 18.828125 0 "/></g></g></g><g fill="#191919" fill-opacity="1"><g transform="translate(1215.492795, 864.46673)"><g><path d="M 87.734375 3.46875 C 73.835938 3.46875 61.335938 0.285156 50.234375 -6.078125 C 39.140625 -12.453125 30.359375 -21.285156 23.890625 -32.578125 C 17.421875 -43.867188 14.1875 -56.945312 14.1875 -71.8125 C 14.1875 -86.675781 17.46875 -99.753906 24.03125 -111.046875 C 30.59375 -122.335938 39.421875 -131.164062 50.515625 -137.53125 C 61.617188 -143.90625 74.117188 -147.09375 88.015625 -147.09375 C 101.722656 -147.09375 114.125 -143.90625 125.21875 -137.53125 C 136.320312 -131.164062 145.109375 -122.335938 151.578125 -111.046875 C 158.046875 -99.753906 161.28125 -86.675781 161.28125 -71.8125 C 161.28125 -56.945312 158.046875 -43.867188 151.578125 -32.578125 C 145.109375 -21.285156 136.273438 -12.453125 125.078125 -6.078125 C 113.890625 0.285156 101.441406 3.46875 87.734375 3.46875 Z M 87.734375 -28.671875 C 97.378906 -28.671875 105.773438 -32.285156 112.921875 -39.515625 C 120.066406 -46.753906 123.640625 -57.519531 123.640625 -71.8125 C 123.640625 -86.09375 120.066406 -96.851562 112.921875 -104.09375 C 105.773438 -111.332031 97.472656 -114.953125 88.015625 -114.953125 C 78.171875 -114.953125 69.726562 -111.332031 62.6875 -104.09375 C 55.644531 -96.851562 52.125 -86.09375 52.125 -71.8125 C 52.125 -57.519531 55.644531 -46.753906 62.6875 -39.515625 C 69.726562 -32.285156 78.078125 -28.671875 87.734375 -28.671875 Z M 87.734375 -28.671875 "/></g></g></g></svg>